<?xml version="1.0" encoding="utf-8"?>
<!-- Generator: Adobe Illustrator 15.0.2, SVG Export Plug-In . SVG Version: 6.00 Build 0)  -->
<!DOCTYPE svg PUBLIC "-//W3C//DTD SVG 1.1//EN" "http://www.w3.org/Graphics/SVG/1.1/DTD/svg11.dtd">
<svg version="1.1" id="Layer_1" xmlns="http://www.w3.org/2000/svg" xmlns:xlink="http://www.w3.org/1999/xlink" x="0px" y="0px"
	 width="512px" height="558.559px" viewBox="0 0 512 558.559" enable-background="new 0 0 512 558.559" xml:space="preserve">
<path d="M256.004,0C397.395,0,512,31.257,512,69.819c0,17.886-24.632,34.192-65.169,46.545
	c-46.882,14.289-115.008,23.275-190.827,23.275c-75.82,0-143.939-8.986-190.82-23.275C24.646,104.012,0,87.705,0,69.819
	C0,31.257,114.612,0,256.004,0z M512,488.738c0,38.557-114.605,69.82-255.996,69.82C114.612,558.559,0,527.295,0,488.738v-93.103
	c0,38.57,114.612,69.82,256.004,69.82c141.391,0,255.996-31.25,255.996-69.82V488.738z M512,349.099
	c0,38.557-114.605,69.82-255.996,69.82C114.612,418.919,0,387.655,0,349.099v-93.095c0,38.562,114.612,69.812,256.004,69.812
	c141.391,0,255.996-31.25,255.996-69.812V349.099z M512,209.459c0,38.557-114.605,69.82-255.996,69.82
	C114.612,279.279,0,248.016,0,209.459v-93.095c0,38.562,114.612,69.819,256.004,69.819c141.391,0,255.996-31.257,255.996-69.819
	V209.459z"/>
</svg>
