<?xml version="1.0" encoding="UTF-8" standalone="no"?>
<!-- Created with Inkscape (http://www.inkscape.org/) -->
<svg
   xmlns:dc="http://purl.org/dc/elements/1.1/"
   xmlns:cc="http://creativecommons.org/ns#"
   xmlns:rdf="http://www.w3.org/1999/02/22-rdf-syntax-ns#"
   xmlns:svg="http://www.w3.org/2000/svg"
   xmlns="http://www.w3.org/2000/svg"
   xmlns:sodipodi="http://sodipodi.sourceforge.net/DTD/sodipodi-0.dtd"
   xmlns:inkscape="http://www.inkscape.org/namespaces/inkscape"
   width="40.429474"
   height="29.65316"
   id="svg8258"
   sodipodi:version="0.32"
   inkscape:version="0.46"
   sodipodi:docname="Dadi.svg"
   inkscape:output_extension="org.inkscape.output.svg.inkscape"
   version="1.0">
  <defs
     id="defs8260">
    <inkscape:perspective
       sodipodi:type="inkscape:persp3d"
       inkscape:vp_x="0 : 526.18109 : 1"
       inkscape:vp_y="0 : 1000 : 0"
       inkscape:vp_z="744.09448 : 526.18109 : 1"
       inkscape:persp3d-origin="372.04724 : 350.78739 : 1"
       id="perspective8266" />
  </defs>
  <sodipodi:namedview
     id="base"
     pagecolor="#ffffff"
     bordercolor="#666666"
     borderopacity="1.0"
     inkscape:pageopacity="0.0"
     inkscape:pageshadow="2"
     inkscape:zoom="5.6"
     inkscape:cx="39.693032"
     inkscape:cy="12.861237"
     inkscape:document-units="px"
     inkscape:current-layer="g4607"
     showgrid="false"
     inkscape:window-width="640"
     inkscape:window-height="667"
     inkscape:window-x="132"
     inkscape:window-y="174" />
  <metadata
     id="metadata8263">
    <rdf:RDF>
      <cc:Work
         rdf:about="">
        <dc:format>image/svg+xml</dc:format>
        <dc:type
           rdf:resource="http://purl.org/dc/dcmitype/StillImage" />
      </cc:Work>
    </rdf:RDF>
  </metadata>
  <g
     inkscape:label="Livello 1"
     inkscape:groupmode="layer"
     id="layer1"
     transform="translate(-322.3422,-324.36866)">
    <g
       transform="matrix(0.4333292,-0.3342014,0.3342014,0.4333292,-354.30886,610.51768)"
       id="g4607"
       style="display:inline">
      <g
         id="g4609"
         transform="matrix(0.9240741,0.7016441,-0.7016441,0.9240741,2048.8256,36.511712)">
        <path
           sodipodi:nodetypes="ccccccc"
           id="path4611"
           d="M -324.52189,633.42736 L -304.19184,633.24155 L -293.28137,617.61991 L -303.58192,601.29731 L -322.9018,601.48643 L -333.05343,616.73175 L -324.52189,633.42736 z"
           style="fill:#b3b3b3;fill-opacity:1;fill-rule:evenodd;stroke:#000000;stroke-width:1px;stroke-linecap:butt;stroke-linejoin:round;stroke-opacity:1" />
        <path
           id="path4613"
           d="M -308.34906,633.52768 C -309.23295,633.52768 -322.36493,636.93695 -322.36493,636.93695 L -324.38524,623.80496 L -308.34906,633.52768 z"
           style="fill:#000000;fill-opacity:1;fill-rule:evenodd;stroke:none;stroke-width:1px;stroke-linecap:butt;stroke-linejoin:round;stroke-opacity:1" />
        <path
           sodipodi:nodetypes="ccccc"
           id="path4615"
           d="M -324.01681,633.42902 L -313.73685,617.55277 L -293.28054,617.36737 L -304.44479,633.36699 L -324.01681,633.42902 z"
           style="fill:#ececec;fill-opacity:1;fill-rule:evenodd;stroke:#000000;stroke-width:1px;stroke-linecap:butt;stroke-linejoin:round;stroke-opacity:1" />
        <path
           id="path4617"
           d="M -293.53266,617.24027 L -303.70735,601.04435 L -322.90222,601.6127 L -313.98939,617.55194 L -293.53266,617.24027 z"
           style="fill:#ffffff;fill-opacity:1;fill-rule:evenodd;stroke:#000000;stroke-width:1px;stroke-linecap:butt;stroke-linejoin:round;stroke-opacity:1" />
        <path
           transform="matrix(9.230916e-2,-28.124847,5.8749679,1.9282357e-2,-3818.105,-9067.9794)"
           d="M -344.33576,601.45532 A 0.063134536,0.50507629 0 1 1 -344.46203,601.45532 A 0.063134536,0.50507629 0 1 1 -344.33576,601.45532 z"
           sodipodi:ry="0.50507629"
           sodipodi:rx="0.063134536"
           sodipodi:cy="601.45532"
           sodipodi:cx="-344.3989"
           id="path4619"
           style="fill:#000000;fill-opacity:1;fill-rule:nonzero;stroke:none;stroke-width:7.08661413;stroke-linecap:round;stroke-linejoin:round;stroke-miterlimit:4;stroke-dasharray:none;stroke-dashoffset:0;stroke-opacity:1"
           sodipodi:type="arc" />
        <path
           transform="matrix(9.230916e-2,-28.124847,5.8749679,1.9282357e-2,-3804.5077,-9075.1242)"
           d="M -344.33576,601.45532 A 0.063134536,0.50507629 0 1 1 -344.46203,601.45532 A 0.063134536,0.50507629 0 1 1 -344.33576,601.45532 z"
           sodipodi:ry="0.50507629"
           sodipodi:rx="0.063134536"
           sodipodi:cy="601.45532"
           sodipodi:cx="-344.3989"
           id="path4621"
           style="fill:#000000;fill-opacity:1;fill-rule:nonzero;stroke:none;stroke-width:7.08661413;stroke-linecap:round;stroke-linejoin:round;stroke-miterlimit:4;stroke-dasharray:none;stroke-dashoffset:0;stroke-opacity:1"
           sodipodi:type="arc" />
        <path
           transform="matrix(9.230916e-2,-28.124847,5.8749679,1.9282357e-2,-3803.5893,-9085.6015)"
           d="M -344.33576,601.45532 A 0.063134536,0.50507629 0 1 1 -344.46203,601.45532 A 0.063134536,0.50507629 0 1 1 -344.33576,601.45532 z"
           sodipodi:ry="0.50507629"
           sodipodi:rx="0.063134536"
           sodipodi:cy="601.45532"
           sodipodi:cx="-344.3989"
           id="path4623"
           style="fill:#000000;fill-opacity:1;fill-rule:nonzero;stroke:none;stroke-width:7.08661413;stroke-linecap:round;stroke-linejoin:round;stroke-miterlimit:4;stroke-dasharray:none;stroke-dashoffset:0;stroke-opacity:1"
           sodipodi:type="arc" />
        <path
           transform="matrix(9.230916e-2,-28.124847,5.8749679,1.9282357e-2,-3807.4825,-9092.0542)"
           d="M -344.33576,601.45532 A 0.063134536,0.50507629 0 1 1 -344.46203,601.45532 A 0.063134536,0.50507629 0 1 1 -344.33576,601.45532 z"
           sodipodi:ry="0.50507629"
           sodipodi:rx="0.063134536"
           sodipodi:cy="601.45532"
           sodipodi:cx="-344.3989"
           id="path4625"
           style="fill:#000000;fill-opacity:1;fill-rule:nonzero;stroke:none;stroke-width:7.08661413;stroke-linecap:round;stroke-linejoin:round;stroke-miterlimit:4;stroke-dasharray:none;stroke-dashoffset:0;stroke-opacity:1"
           sodipodi:type="arc" />
        <path
           transform="matrix(9.230916e-2,-28.124847,5.8749679,1.9282357e-2,-3817.8369,-9091.9618)"
           d="M -344.33576,601.45532 A 0.063134536,0.50507629 0 1 1 -344.46203,601.45532 A 0.063134536,0.50507629 0 1 1 -344.33576,601.45532 z"
           sodipodi:ry="0.50507629"
           sodipodi:rx="0.063134536"
           sodipodi:cy="601.45532"
           sodipodi:cx="-344.3989"
           id="path4627"
           style="fill:#000000;fill-opacity:1;fill-rule:nonzero;stroke:none;stroke-width:7.08661413;stroke-linecap:round;stroke-linejoin:round;stroke-miterlimit:4;stroke-dasharray:none;stroke-dashoffset:0;stroke-opacity:1"
           sodipodi:type="arc" />
        <path
           transform="matrix(9.230916e-2,-28.124847,5.8749679,1.9282357e-2,-3813.4399,-9085.1289)"
           d="M -344.33576,601.45532 A 0.063134536,0.50507629 0 1 1 -344.46203,601.45532 A 0.063134536,0.50507629 0 1 1 -344.33576,601.45532 z"
           sodipodi:ry="0.50507629"
           sodipodi:rx="0.063134536"
           sodipodi:cy="601.45532"
           sodipodi:cx="-344.3989"
           id="path4629"
           style="fill:#000000;fill-opacity:1;fill-rule:nonzero;stroke:none;stroke-width:7.08661413;stroke-linecap:round;stroke-linejoin:round;stroke-miterlimit:4;stroke-dasharray:none;stroke-dashoffset:0;stroke-opacity:1"
           sodipodi:type="arc" />
        <path
           transform="matrix(28.068897,-1.7755417,0.3708909,5.8632806,9119.7332,-3520.856)"
           d="M -344.33576,601.45532 A 0.063134536,0.50507629 0 1 1 -344.46203,601.45532 A 0.063134536,0.50507629 0 1 1 -344.33576,601.45532 z"
           sodipodi:ry="0.50507629"
           sodipodi:rx="0.063134536"
           sodipodi:cy="601.45532"
           sodipodi:cx="-344.3989"
           id="path4631"
           style="fill:#000000;fill-opacity:1;fill-rule:nonzero;stroke:none;stroke-width:7.08661413;stroke-linecap:round;stroke-linejoin:round;stroke-miterlimit:4;stroke-dasharray:none;stroke-dashoffset:0;stroke-opacity:1"
           sodipodi:type="arc" />
        <path
           id="path4633"
           d="M -335.37065,644.51309 L -356.07877,633.65395 L -337.64349,620.26943 L -335.37065,644.51309 z"
           style="fill:#000000;fill-opacity:1;fill-rule:evenodd;stroke:#000000;stroke-width:1px;stroke-linecap:butt;stroke-linejoin:round;stroke-opacity:1" />
        <g
           transform="translate(-29.420693,24.622468)"
           id="g4635">
          <path
             style="fill:#ffffff;fill-opacity:1;fill-rule:evenodd;stroke:#000000;stroke-width:1px;stroke-linecap:butt;stroke-linejoin:round;stroke-opacity:1"
             d="M -318.70313,590.72246 L -318.45059,611.05179 L -302.79323,621.91093 L -286.50452,611.55686 L -286.75705,592.2377 L -302.03561,582.13617 L -318.70313,590.72246 z"
             id="path4637"
             sodipodi:nodetypes="ccccccc" />
          <path
             style="fill:#cccccc;fill-opacity:1;fill-rule:evenodd;stroke:#000000;stroke-width:1px;stroke-linecap:butt;stroke-linejoin:round;stroke-opacity:1"
             d="M -318.70313,591.22754 L -302.79323,601.45534 L -302.54069,621.91093 L -318.57686,610.79925 L -318.70313,591.22754 z"
             id="path4639"
             sodipodi:nodetypes="ccccc" />
          <path
             style="fill:#ececec;fill-opacity:1;fill-rule:evenodd;stroke:#000000;stroke-width:1px;stroke-linecap:butt;stroke-linejoin:round;stroke-opacity:1"
             d="M -302.41442,621.65839 L -286.25198,611.4306 L -286.88332,592.2377 L -302.79323,601.2028 L -302.41442,621.65839 z"
             id="path4641" />
          <path
             sodipodi:type="arc"
             style="opacity:1;fill:#000000;fill-opacity:1;fill-rule:nonzero;stroke:none;stroke-width:7.08661413;stroke-linecap:round;stroke-linejoin:round;stroke-miterlimit:4;stroke-dasharray:none;stroke-dashoffset:0;stroke-opacity:1"
             id="path4643"
             sodipodi:cx="-344.3989"
             sodipodi:cy="601.45532"
             sodipodi:rx="0.063134536"
             sodipodi:ry="0.50507629"
             d="M -344.33576,601.45532 A 0.063134536,0.50507629 0 1 1 -344.46203,601.45532 A 0.063134536,0.50507629 0 1 1 -344.33576,601.45532 z"
             transform="matrix(28.124999,0,0,5.8749996,9371.1852,-2934.6829)" />
          <path
             sodipodi:type="arc"
             style="opacity:1;fill:#000000;fill-opacity:1;fill-rule:nonzero;stroke:none;stroke-width:7.08661413;stroke-linecap:round;stroke-linejoin:round;stroke-miterlimit:4;stroke-dasharray:none;stroke-dashoffset:0;stroke-opacity:1"
             id="path4645"
             sodipodi:cx="-344.3989"
             sodipodi:cy="601.45532"
             sodipodi:rx="0.063134536"
             sodipodi:ry="0.50507629"
             d="M -344.33576,601.45532 A 0.063134536,0.50507629 0 1 1 -344.46203,601.45532 A 0.063134536,0.50507629 0 1 1 -344.33576,601.45532 z"
             transform="matrix(28.124999,0,0,5.8749996,9378.3746,-2921.1091)" />
          <path
             sodipodi:type="arc"
             style="opacity:1;fill:#000000;fill-opacity:1;fill-rule:nonzero;stroke:none;stroke-width:7.08661413;stroke-linecap:round;stroke-linejoin:round;stroke-miterlimit:4;stroke-dasharray:none;stroke-dashoffset:0;stroke-opacity:1"
             id="path4647"
             sodipodi:cx="-344.3989"
             sodipodi:cy="601.45532"
             sodipodi:rx="0.063134536"
             sodipodi:ry="0.50507629"
             d="M -344.33576,601.45532 A 0.063134536,0.50507629 0 1 1 -344.46203,601.45532 A 0.063134536,0.50507629 0 1 1 -344.33576,601.45532 z"
             transform="matrix(28.124999,0,0,5.8749996,9388.8549,-2920.2251)" />
          <path
             sodipodi:type="arc"
             style="opacity:1;fill:#000000;fill-opacity:1;fill-rule:nonzero;stroke:none;stroke-width:7.08661413;stroke-linecap:round;stroke-linejoin:round;stroke-miterlimit:4;stroke-dasharray:none;stroke-dashoffset:0;stroke-opacity:1"
             id="path4649"
             sodipodi:cx="-344.3989"
             sodipodi:cy="601.45532"
             sodipodi:rx="0.063134536"
             sodipodi:ry="0.50507629"
             d="M -344.33576,601.45532 A 0.063134536,0.50507629 0 1 1 -344.46203,601.45532 A 0.063134536,0.50507629 0 1 1 -344.33576,601.45532 z"
             transform="matrix(28.124999,0,0,5.8749996,9395.2947,-2924.1395)" />
          <path
             sodipodi:type="arc"
             style="opacity:1;fill:#000000;fill-opacity:1;fill-rule:nonzero;stroke:none;stroke-width:7.08661413;stroke-linecap:round;stroke-linejoin:round;stroke-miterlimit:4;stroke-dasharray:none;stroke-dashoffset:0;stroke-opacity:1"
             id="path4651"
             sodipodi:cx="-344.3989"
             sodipodi:cy="601.45532"
             sodipodi:rx="0.063134536"
             sodipodi:ry="0.50507629"
             d="M -344.33576,601.45532 A 0.063134536,0.50507629 0 1 1 -344.46203,601.45532 A 0.063134536,0.50507629 0 1 1 -344.33576,601.45532 z"
             transform="matrix(28.124999,0,0,5.8749996,9395.1684,-2934.4935)" />
          <path
             sodipodi:type="arc"
             style="opacity:1;fill:#000000;fill-opacity:1;fill-rule:nonzero;stroke:none;stroke-width:7.08661413;stroke-linecap:round;stroke-linejoin:round;stroke-miterlimit:4;stroke-dasharray:none;stroke-dashoffset:0;stroke-opacity:1"
             id="path4653"
             sodipodi:cx="-344.3989"
             sodipodi:cy="601.45532"
             sodipodi:rx="0.063134536"
             sodipodi:ry="0.50507629"
             d="M -344.33576,601.45532 A 0.063134536,0.50507629 0 1 1 -344.46203,601.45532 A 0.063134536,0.50507629 0 1 1 -344.33576,601.45532 z"
             transform="matrix(28.124999,0,0,5.8749996,9388.3499,-2930.0741)" />
          <path
             sodipodi:type="arc"
             style="opacity:1;fill:#000000;fill-opacity:1;fill-rule:nonzero;stroke:none;stroke-width:7.08661413;stroke-linecap:round;stroke-linejoin:round;stroke-miterlimit:4;stroke-dasharray:none;stroke-dashoffset:0;stroke-opacity:1"
             id="path4655"
             sodipodi:cx="-344.3989"
             sodipodi:cy="601.45532"
             sodipodi:rx="0.063134536"
             sodipodi:ry="0.50507629"
             d="M -344.33576,601.45532 A 0.063134536,0.50507629 0 1 1 -344.46203,601.45532 A 0.063134536,0.50507629 0 1 1 -344.33576,601.45532 z"
             transform="matrix(1.8676572,28.062919,-5.8620318,0.3901328,3866.5549,10021.292)" />
        </g>
      </g>
    </g>
  </g>
</svg>
