<?xml version="1.0" encoding="UTF-8"?>
<!DOCTYPE svg PUBLIC "-//W3C//DTD SVG 1.1//EN" "http://www.w3.org/Graphics/SVG/1.1/DTD/svg11.dtd">
<!-- Creator: Corel DESIGNER -->
<svg xmlns="http://www.w3.org/2000/svg" xml:space="preserve" width="700px" height="502px" style="shape-rendering:geometricPrecision; text-rendering:geometricPrecision; image-rendering:optimizeQuality; fill-rule:evenodd; clip-rule:evenodd"
viewBox="0 0 700 501.667"
 xmlns:xlink="http://www.w3.org/1999/xlink">
 <defs>
  <style type="text/css">
   <![CDATA[
    .str2 {stroke:#28166F;stroke-width:6.48189;stroke-linecap:round;stroke-linejoin:round}
    .str1 {stroke:black;stroke-width:6.48189}
    .str0 {stroke:black;stroke-width:6.48189;stroke-linecap:round;stroke-linejoin:round}
    .fil1 {fill:none;fill-rule:nonzero}
    .fil0 {fill:white}
   ]]>
  </style>
 </defs>
 <g id="Layer_x0020_1">
  <metadata id="CorelCorpID_0Corel-Layer"/>
  <rect class="fil0" x="-0.000918635" y="-0.000918635" width="700.002" height="501.669"/>
  <g id="_39854808">
   <g>
    <line id="_38865536" class="fil1 str0" x1="44.0467" y1="419.646" x2="644.905" y2= "419.646" />
    <path id="_38045336" class="fil1 str0" d="M344.477 419.646l0 -371.346m-240.343 371.346l0.977428 0 0.480446 -0.0156168 0.948031 0 0.476772 -0.00551181 0.500656 -0.00918635 0.953543 0 0.490551 -0.010105 0.480446 -0.00918635 0.45748 0 0.486877 -0.010105 0.970997 0 0.481365 -0.00918635 0.461155 -0.010105 0.492388 0 0.476772 -0.00918635 0.509843 -0.010105 0.951706 -0.0192913 0.492388 0 0.480446 -0.00918635 0.462073 0 0.485958 -0.0192913 0.476772 0 0.500656 -0.010105 0.480446 -0.00918635 0.467585 -0.010105 0.490551 -0.00918635 0.943438 -0.0192913 0.481365 -0.00551181 0.465748 -0.010105 0.982021 -0.0192913 0.462073 -0.00918635 0.490551 -0.010105 0.472178 -0.0192913 0.991207 -0.02021 0.461155 -0.010105 0.501575 -0.0192913 0.481365 -0.00918635 0.45748 -0.010105 0.485039 -0.00918635 0.472178 -0.0192913 0.500656 -0.0192913"/>
    <polyline id="_37737360" class="fil1 str0" points="572.284,419.5 572.775,419.52 573.247,419.52 573.747,419.529 574.224,419.529 575.181,419.548 575.653,419.558 576.164,419.567 576.645,419.567 577.116,419.577 577.612,419.587 578.551,419.587 579.041,419.597 579.513,419.597 580.018,419.606 580.499,419.616 581.457,419.616 582.391,419.631 583.349,419.631 583.849,419.646 584.822,419.646 "/>
    <path id="_39870176" class="fil1 str1" d="M104.135 419.646l0 19.4438m120.171 -19.4438l0 19.4438m240.339 -19.4438l0 19.4438m120.177 -19.4438l0 19.4438"/>
   </g>
   <path id="_39579056" class="fil1 str2" d="M127.716 419.252l0.476772 -0.010105 0.465748 -0.0146982 0.501575 -0.0192913 0.47126 -0.010105 0.509843 -0.0192913 0.482283 -0.0192913 0.465748 -0.0192913 0.496063 -0.0192913 0.480446 -0.0110236 0.462992 -0.0192913 0.490551 -0.0192913 0.47126 -0.0192913 0.506168 -0.0284777 0.476772 -0.0156168 0.47126 -0.0174541 0.496063 -0.0211286 0.474934 -0.0284777 0.45748 -0.0192913 0.490551 -0.0293963 0.462073 -0.0192913 0.505249 -0.0284777 0.473097 -0.0156168 0.465748 -0.0284777 0.496063 -0.0293963 0.47126 -0.02021 0.505249 -0.0385827 0.486877 -0.0293963 0.47126 -0.0284777 0.496063 -0.0248031 0.47126 -0.0293963 0.466667 -0.0284777 0.486877 -0.0385827 0.47126 -0.0293963 0.505249 -0.0395013 0.475853 -0.0330709 0.462992 -0.0404199 0.504331 -0.0385827 0.472178 -0.0284777 0.456562 -0.0385827 0.485958 -0.0496063 0.467585 -0.0330709 0.499738 -0.0385827 0.481365 -0.0496063 0.45748 -0.0385827 0.496063 -0.0486877 0.47126 -0.0440945 0.505249 -0.047769 0.486877 -0.0486877 0.461155 -0.0496063 0.496063 -0.0440945 0.475853 -0.057874 0.461155 -0.047769 0.486877 -0.057874 0.47126 -0.0440945 0.496063 -0.067979 0.49147 -0.0496063 0.456562 -0.0633858 0.496063 -0.057874 0.476772 -0.057874 0.499738 -0.0633858 0.490551 -0.0688976 0.45748 -0.0670604 0.506168 -0.067979 0.476772 -0.0725722 0.461155 -0.0688976 0.485039 -0.0633858 0.476772 -0.0771654 0.501575 -0.0771654 0.485039 -0.0734908 0.462073 -0.088189 0.496063 -0.0771654 0.476772 -0.0826772 0.45748 -0.078084 0.490551 -0.0826772 0.466667 -0.0872703 0.495144 -0.0918635 0.482283 -0.088189 0.465748 -0.0964567 0.49147 -0.0927822 0.475853 -0.0973753 0.501575 -0.101969 0.480446 -0.106562 0.47126 -0.102887 0.496063 -0.106562 0.476772 -0.111155 0.456562 -0.098294 0.49147 -0.111155 0.475853 -0.117585 0.496063 -0.12126 0.485958 -0.12126 0.462073 -0.116667 0.496063 -0.131365 0.476772 -0.12126 0.499738 -0.146063 0.486877 -0.12126 0.476772 -0.130446 0.490551 -0.157087 0.476772 -0.131365 0.465748 -0.140551 0.49147 -0.146063 0.475853 -0.149738 0.49147 -0.16168 0.490551 -0.149738 0.462073 -0.156168 0.499738 -0.169029 0.476772 -0.16168 0.45748 -0.159843 0.490551 -0.170866 0.467585 -0.174541 0.499738 -0.179134 0.481365 -0.190157 0.461155 -0.169948 0.492388 -0.190157 0.474934 -0.18832 0.501575 -0.200262 0.490551 -0.209449 0.47126 -0.18832 0.492388 -0.219554 0.474934 -0.209449 0.467585 -0.209449 0.480446 -0.217717 0.476772 -0.218635 0.500656 -0.22874 0.485958 -0.223228 0.467585 -0.238845 0.490551 -0.237927 0.476772 -0.248031 0.461155 -0.227822 0.486877 -0.257218 0.465748 -0.244357 0.496063 -0.267323 0.482283 -0.267323 0.465748 -0.261811 0.480446 -0.276509 0.476772 -0.277428 0.506168 -0.292126 0.480446 -0.295801 0.467585 -0.28294 0.499738 -0.305906 0.476772 -0.292126 0.462073 -0.295801 0.485958 -0.321522 0.467585 -0.315092 0.509843 -0.330709 0.476772 -0.330709 0.465748 -0.325197 0.485958 -0.35 0.476772 -0.330709 0.509843 -0.384908 0.482283 -0.359186 0.47126 -0.340814 0.496063 -0.388583 0.475853 -0.369291 0.466667 -0.37021 0.486877 -0.393176 0.47126 -0.378478 0.505249 -0.418898 0.481365 -0.407874 0.466667 -0.398688 0.490551 -0.428084 0.481365 -0.423491 0.461155 -0.407874 0.482283 -0.436352 0.465748 -0.438189 0.506168 -0.467585 0.476772 -0.455643 0.461155 -0.442782 0.496063 -0.476772 0.47126 -0.476772 0.506168 -0.509843 0.485958 -0.485958 0.462073 -0.481365 0.505249 -0.524541 0.476772 -0.51168 0.456562 -0.496063 0.496063 -0.53832 0.466667 -0.525459 0.506168 -0.559449 0.474934 -0.557612 0.462073 -0.534646 0.496063 -0.57874 0.47126 -0.569554 0.466667 -0.549344 0.486877 -0.598031 0.466667 -0.567717 0.495144 -0.627428 0.476772 -0.617323 0.466667 -0.587927 0.496063 -0.646719 0.47126 -0.618241 0.496063 -0.675197 0.490551 -0.661417 0.45748 -0.636614 0.504331 -0.694488 0.473097 -0.677034 0.461155 -0.650394 0.490551 -0.705512 0.462073 -0.680709 0.501575 -0.744094 0.490551 -0.719291 0.45748 -0.703675 0.494226 -0.749606 0.476772 -0.738583 0.500656 -0.801969 0.49147 -0.767979 0.456562 -0.747769 0.501575 -0.80748 0.485958 -0.798294 0.451969 -0.757874 0.495144 -0.826772 0.472178 -0.805643 0.495144 -0.865354 0.485958 -0.836877 0.462073 -0.816667 0.496063 -0.879134 0.476772 -0.865354 0.461155 -0.826772 0.486877 -0.903937 0.47126 -0.859843 0.496063 -0.944357 0.485958 -0.909449 0.456562 -0.893832 0.49147 -0.948031 0.475853 -0.923228 0.501575 -0.996719 0.485039 -0.967323 0.466667 -0.948031 0.490551 -1.00591 0.486877 -0.976509 0.451969 -0.963648 0.496063 -1.0252 0.466667 -0.995801 0.500656 -1.06929 0.485958 -1.03622 0.467585 -1.01601 0.490551 -1.0748 0.476772 -1.06378 0.499738 -1.12808 0.486877 -1.1042 0.47126 -1.06378 0.496063 -1.13819 0.485958 -1.11706 0.451969 -1.0748 0.495144 -1.15656 0.476772 -1.12257 0.490551 -1.20617 0.49147 -1.16667 0.462073 -1.13268 0.499738 -1.21995 0.476772 -1.18228 0.451969 -1.14646 0.496063 -1.22454 0.467585 -1.18688 0.494226 -1.28241 0.482283 -1.23465 0.465748 -1.20617 0.492388 -1.27874 0.474934 -1.24383 0.501575 -1.34213 0.485039 -1.28885 0.467585 -1.26312 0.496063 -1.34672 0.480446 -1.30171 0.45748 -1.26496 0.490551 -1.34672 0.47126 -1.31181 0.506168 -1.40551 0.476772 -1.35591 0.466667 -1.30722 0.495144 -1.40551 0.476772 -1.36969 0.461155 -1.31916 0.482283 -1.41378 0.465748 -1.36509 0.501575 -1.46339 0.481365 -1.41562 0.461155 -1.36509 0.486877 -1.46339 0.476772 -1.4248 0.504331 -1.51207 0.485958 -1.46706 0.462073 -1.41929 0.496063 -1.51759 0.476772 -1.47257 0.466667 -1.41562 0.481365 -1.50564 0.47126 -1.47349 0.499738 -1.55525 0.482283 -1.52126 0.465748 -1.46339 0.492388 -1.56535 0.474934 -1.50656 0.506168 -1.60945 0.480446 -1.55525 0.473097 -1.50748 0.490551 -1.60853 0.480446 -1.54606 0.467585 -1.49738 0.480446 -1.60394 0.476772 -1.54606 0.506168 -1.64803 0.480446 -1.58465 0.467585 -1.53504 0.490551 -1.63517 0.476772 -1.58465 0.455643 -1.52126 0.486877 -1.62323 0.476772 -1.56535 0.499738 -1.67283 0.481365 -1.61312 0.462992 -1.55617 0.490551 -1.65722 0.47126 -1.59016 0.505249 -1.70039 0.481365 -1.64436 0.47126 -1.58465 0.496063 -1.6811 0.476772 -1.62415 0.455643 -1.56535 0.496063 -1.66181 0.462992 -1.59475 0.509843 -1.70591 0.476772 -1.64344 0.465748 -1.58465 0.496063 -1.68294 0.47126 -1.61312 0.506168 -1.73071 0.49147 -1.66181 0.462073 -1.58465 0.499738 -1.70223 0.481365 -1.62874 0.461155 -1.56903 0.492388 -1.66732 0.47126 -1.60394 0.505249 -1.70223 0.481365 -1.64252 0.466667 -1.57454 0.496063 -1.67283 0.475853 -1.60394 0.45748 -1.54606 0.490551 -1.64252 0.47126 -1.57087 0.496063 -1.67192 0.482283 -1.59934 0.461155 -1.54606 0.495144 -1.63885 0.472178 -1.56535 0.509843 -1.66732 0.481365 -1.58832 0.466667 -1.53688 0.496063 -1.61864 0.481365 -1.55617 0.461155 -1.49646 0.490551 -1.58005 0.473097 -1.51575 0.494226 -1.60394 0.486877 -1.53688 0.461155 -1.47257 0.496063 -1.56168 0.482283 -1.49646 0.456562 -1.4248 0.485958 -1.51667 0.467585 -1.45236 0.499738 -1.52677 0.486877 -1.46339 0.455643 -1.40459 0.492388 -1.48268 0.474934 -1.4147 0.501575 -1.50197 0.485039 -1.4248 0.462992 -1.37152 0.500656 -1.44226 0.476772 -1.37152 0.455643 -1.32283 0.486877 -1.39449 0.476772 -1.31732 0.499738 -1.4 0.481365 -1.33661 0.45748 -1.26864 0.496063 -1.34213 0.485958 -1.27874 0.500656 -1.34121 0.485958 -1.28793 0.462073 -1.21535 0.499738 -1.28885 0.482283 -1.21903 0.462073 -1.16759 0.485039 -1.22454 0.476772 -1.15748 0.499738 -1.22546 0.486877 -1.16115 0.461155 -1.10787 0.496063 -1.15748 0.476772 -1.1042 0.462073 -1.04449 0.485958 -1.08858 0.47126 -1.0399 0.496063 -1.09042 0.481365 -1.03438 0.45748 -0.967323 0.496063 -1.0252 0.474934 -0.967323 0.506168 -1.00774 0.49147 -0.961811 0.456562 -0.899344 0.499738 -0.94252 0.482283 -0.890157 0.456562 -0.836877 0.49147 -0.869029 0.47126 -0.82126 0.496063 -0.859843 0.490551 -0.803806 0.462073 -0.757874 0.485958 -0.788189 0.476772 -0.738583 0.462073 -0.694488 0.485958 -0.709186 0.475853 -0.677034 0.49147 -0.694488 0.475853 -0.640289 0.466667 -0.609055 0.490551 -0.627428 0.476772 -0.57874 0.490551 -0.598031 0.492388 -0.553937 0.47126 -0.515354 0.490551 -0.524541 0.480446 -0.485039 0.45748 -0.448294 0.486877 -0.455643 0.476772 -0.418898 0.490551 -0.417979 0.485958 -0.389501 0.465748 -0.35 0.486877 -0.349081 0.476772 -0.320604 0.505249 -0.316929 0.485039 -0.277428 0.473097 -0.251706 0.494226 -0.244357 0.476772 -0.213123 0.467585 -0.179134 0.485958 -0.180971 0.47126 -0.149738 0.500656 -0.136877 0.485958 -0.101969 0.462073 -0.088189 0.24252 -0.0330709 0.253543 -0.0339895 0.248031 -0.0192913 0.22874 -0.0192913 0.111155 -0.00551181 0.12126 0 0.126772 -0.010105 0.067979 0 0.057874 -0.00918635 0.472178 0 0.125853 0.00918635 0.101969 0.010105 0.257218 0.00551181 0.248031 0.0192913 0.219554 0.0192913 0.485958 0.0670604 0.462073 0.088189 0.499738 0.112073 0.476772 0.126772 0.462073 0.149738 0.485958 0.170866 0.467585 0.189239 0.499738 0.22874 0.47769 0.22874 0.465748 0.251706 0.496063 0.286614 0.47126 0.296719 0.505249 0.339895 0.486877 0.340814 0.466667 0.35 0.496063 0.403281 0.475853 0.404199 0.466667 0.407874 0.481365 0.45748 0.476772 0.466667 0.499738 0.500656 0.486877 0.519029 0.461155 0.506168 0.496063 0.574147 0.47126 0.55853 0.45748 0.568635 0.496063 0.608136 0.465748 0.622835 0.501575 0.665092 0.475853 0.671522 0.45748 0.661417 0.496063 0.719291 0.47126 0.722966 0.505249 0.779003 0.481365 0.76706 0.466667 0.768898 0.496063 0.82126 0.475853 0.815748 0.462992 0.801969 0.490551 0.875459 0.466667 0.855249 0.500656 0.92874 0.485958 0.914042 0.462073 0.895669 0.496063 0.975591 0.47126 0.948031 0.995801 2.04213 0.467585 0.986614 0.490551 1.06929 0.480446 1.04541 0.462073 1.01601 0.49147 1.10328 0.47126 1.0794 0.506168 1.15748 0.948031 2.23596 0.496063 1.18504 0.47126 1.16299 0.455643 1.13176 0.496063 1.22087 0.462073 1.18045 0.501575 1.27507 0.485039 1.24383 0.45748 1.20984 0.496063 1.29252 0.476772 1.26404 0.494226 1.35131 0.486877 1.32283 0.466667 1.27874 0.500656 1.38071 0.476772 1.32743 0.461155 1.30171 0.486877 1.38622 0.476772 1.35591 0.494226 1.43858 0.486877 1.40551 0.461155 1.3605 0.496063 1.45879 0.476772 1.41929 0.451969 1.36142 0.490551 1.46798 0.467585 1.42297 0.499738 1.5231 0.482283 1.46706 0.456562 1.4248 0.490551 1.53136 0.476772 1.47257 0.501575 1.57546 0.480446 1.52677 0.47126 1.48268 0.490551 1.57454 0.482283 1.52585 0.456562 1.47257 0.485958 1.57546 0.476772 1.52677 0.496063 1.62874 0.481365 1.56535 0.465748 1.52126 0.96273 3.18858 0.506168 1.66273 0.485958 1.61404 0.47126 1.54974 0.490551 1.65814 0.481365 1.60394 0.462992 1.53596 0.485039 1.64803 0.476772 1.58465 0.496063 1.69672 0.490551 1.62874 0.461155 1.57087 0.492388 1.671 0.480446 1.61955 0.45748 1.55525 0.485039 1.65262 0.47126 1.59934 0.496063 1.69213 0.481365 1.63701 0.462992 1.57087 0.490551 1.6811 0.47126 1.61496 0.505249 1.7105 0.486877 1.65354 0.466667 1.58832 0.490551 1.69213 0.481365 1.62874 0.461155 1.55984 0.486877 1.66365 0.47126 1.60394 0.501575 1.69213 0.474934 1.63241 0.473097 1.57546 0.490551 1.67283 0.474934 1.60394 0.506168 1.6958 0.485958 1.64252 0.47126 1.57087 0.496063 1.66732 0.476772 1.60394 0.462073 1.54606 0.490551 1.63885 0.466667 1.56535 0.509843 1.66181 0.482283 1.60394 0.465748 1.53228 0.492388 1.63701 0.480446 1.55617 0.45748 1.50197 0.485039 1.59016 0.467585 1.52677 0.509843 1.62323 0.476772 1.54974 0.461155 1.48819 0.496063 1.58465 0.47126 1.50748 0.501575 1.60394 0.485039 1.54055 0.467585 1.47349 0.499738 1.56535 0.473097 1.48635 0.465748 1.43491 0.482283 1.52126 0.474934 1.46339 0.501575 1.53596 0.485039 1.48268 0.462992 1.40459 0.495144 1.49738 0.472178 1.43491 0.456562 1.38071 0.49147 1.44777 0.465748 1.3853 0.500656 1.47257 0.476772 1.40551 0.466667 1.35039 0.490551 1.4248 0.47126 1.36601 0.501575 1.44409 0.485039 1.3752 0.473097 1.31824 0.490551 1.40459 0.480446 1.33202 0.45748 1.27323 0.486877 1.35591 0.47126 1.28885 0.499738 1.36142 0.486877 1.29803 0.45748 1.25394 0.494226 1.31181 0.473097 1.26496 0.505249 1.31732 0.490551 1.28241 0.462073 1.20617 0.499738 1.27874 0.47126 1.22454 0.467585 1.17126 0.496063 1.23465 0.461155 1.17677 0.51168 1.23924 0.480446 1.19147 0.467585 1.13727 0.494226 1.19606 0.473097 1.14186 0.461155 1.0794 0.490551 1.16115 0.462073 1.08858 0.501575 1.15748 0.485039 1.11339 0.45748 1.05459 0.496063 1.10879 0.474934 1.06378 0.496063 1.11339 0.486877 1.0601 0.466667 1.02612 0.495144 1.07388 0.482283 1.01509 0.451969 0.978346 0.496063 1.0252 0.47126 0.977428 0.499738 1.03622 0.482283 0.976509 0.462073 0.94252 0.494226 0.986614 0.476772 0.938845 0.506168 0.986614 0.490551 0.943438 0.45748 0.898425 0.499738 0.938845 0.486877 0.903937 0.45748 0.865354 0.496063 0.899344 0.47126 0.865354 0.499738 0.903937 0.486877 0.859843 0.461155 0.817585 0.500656 0.865354 0.476772 0.816667 0.451969 0.78727 0.496063 0.816667 0.47126 0.78727 0.496063 0.826772 0.480446 0.777165 0.45748 0.749606 0.496063 0.782677 0.476772 0.747769 0.500656 0.777165 0.490551 0.749606 0.466667 0.704593 0.496063 0.747769 0.481365 0.705512 0.45748 0.671522 0.490551 0.71378 0.476772 0.676115 0.494226 0.7 0.482283 0.675197 0.47126 0.646719 0.490551 0.661417 0.476772 0.636614 0.451969 0.607218 0.496063 0.636614 0.467585 0.608136 0.494226 0.626509 0.486877 0.608136 0.45748 0.568635 0.490551 0.608136 0.476772 0.568635 0.499738 0.598031 0.481365 0.564042 0.47126 0.540157 0.496063 0.567717 0.476772 0.540157 0.461155 0.515354 0.486877 0.530052 0.47126 0.514436 0.499738 0.520866 0.482283 0.515354 0.465748 0.480446 0.486877 0.496063 0.476772 0.481365 0.505249 0.505249 0.486877 0.476772 0.47126 0.442782 0.496063 0.474934 0.474934 0.448294 0.467585 0.428084 0.485958 0.446457 0.47126 0.417979 0.500656 0.441864 0.49147 0.418898 0.462073 0.398688 0.490551 0.407874 0.480446 0.399606 0.462992 0.369291 0.481365 0.402362 0.47126 0.37021 0.496063 0.388583 0.480446 0.369291 0.467585 0.340814 0.485958 0.369291 0.475853 0.345407 0.510761 0.369291 0.481365 0.340814 0.47126 0.325197 0.972835 0.651312 0.455643 0.305906 0.492388 0.321522 0.47126 0.305906 0.505249 0.311417 0.475853 0.295801 0.466667 0.28294 0.496063 0.295801 0.476772 0.286614 0.456562 0.261811 0.480446 0.278346 0.473097 0.261811 0.499738 0.267323 0.481365 0.267323 0.45748 0.238845 0.496063 0.261811 0.47126 0.248031m-0.00551181 0l0.510761 0.248031 0.475853 0.237927 0.472178 0.22874 0.496063 0.233333 0.475853 0.22874 0.45748 0.209449 0.490551 0.218635 0.47126 0.20853 0.501575 0.218635 0.474934 0.209449 0.462992 0.198425 0.495144 0.200262 0.472178 0.18832 0.506168 0.200262 0.485039 0.190157 0.47126 0.179134 0.49147 0.190157 0.481365 0.174541 0.461155 0.169948 0.490551 0.170866 0.473097 0.169029 0.499738 0.170866 0.481365 0.159843 0.466667 0.156168 0.500656 0.160761 0.47126 0.150656 0.45748 0.140551 0.485958 0.146063 0.467585 0.140551 0.499738 0.140551 0.486877 0.146063 0.455643 0.132283 0.496063 0.130446 0.47126 0.136877 0.506168 0.130446 0.480446 0.12126 0.467585 0.117585 0.501575 0.12126 0.474934 0.116667 0.462073 0.112073 0.485958 0.115748 0.47126 0.112992 0.501575 0.111155 0.481365 0.106562 0.461155 0.0918635 0.496063 0.10748 0.476772 0.101969 0.506168 0.10748 0.490551 0.0927822 0.455643 0.0863517 0.501575 0.098294 0.486877 0.0826772 0.455643 0.0863517 0.496063 0.0927822 0.47126 0.078084 0.501575 0.0826772 0.481365 0.0771654 0.465748 0.088189 0.496063 0.0734908 0.482283 0.0771654 0.451969 0.0670604 0.490551 0.0734908 0.466667 0.0688976 0.506168 0.0725722 0.480446 0.067979 0.456562 0.057874 0.496063 0.0688976 0.476772 0.0633858 0.496063 0.057874 0.490551 0.0670604 0.461155 0.0541995 0.501575 0.0587927 0.475853 0.057874 0.461155 0.0541995 0.486877 0.057874 0.476772 0.047769 0.499738 0.057874 0.486877 0.0440945 0.45748 0.0496063 0.496063 0.0486877 0.474934 0.047769 0.462073 0.0440945 0.485958 0.0385827 0.47126 0.0385827 0.496063 0.0597113 0.481365 0.0385827 0.45748 0.0330709 0.490551 0.0395013 0.476772 0.0385827 0.505249 0.0385827 0.481365 0.0385827 0.47126 0.0404199 0.485958 0.0330709 0.486877 0.030315 0.45748 0.0385827 0.490551 0.0284777 0.466667 0.0293963 0.495144 0.0385827 0.485958 0.0248031 0.467585 0.0284777 0.490551 0.0293963 0.476772 0.0284777 0.499738 0.030315 0.490551 0.0293963 0.462992 0.0284777 0.496063 0.0156168 0.485039 0.0284777 0.462073 0.0192913 0.485958 0.0293963 0.476772 0.0192913 0.496063 0.0284777 0.486877 0.0211286 0.465748 0.0174541 0.496063 0.0156168 0.476772 0.0284777 0.455643 0.0192913 0.482283 0.0192913 0.475853 0.0192913 0.501575 0.0110236 0.480446 0.0192913 0.462073 0.0192913 0.490551 0.0192913 0.472178 0.0192913 0.506168 0.010105 0.485039 0.0192913 0.466667 0.00918635 0.490551 0.0156168 0.481365 0.0192913 0.462992 0.0192913 0.485039 0.00918635 0.472178 0.010105 0.504331 0.00918635 0.482283 0.0192913 0.462073 0.010105 0.490551 0.00918635 0.476772 0.0110236 0.515354 0.0192913 0.480446 0.010105 0.47126 0.00918635 0.492388 0.010105 0.480446 0.00918635 0.462073 0.010105 0.490551 0.00551181 0.476772 0.00826772 0.986614 0.02021 0.461155 0.010105 0.496063 0.00918635 0.476772 0.010105 0.456562 0"/>
  </g>
 </g>
</svg>
